<svg width="50" height="50" viewBox="0 0 50 50" fill="none" xmlns="http://www.w3.org/2000/svg">
<circle cx="25" cy="25" r="25" fill="black"/>
<path d="M31.6515 10.5876C31.4237 10.0845 30.8312 9.86126 30.3281 10.089L22.129 13.8005C21.6259 14.0283 21.4027 14.6208 21.6304 15.1239C21.8582 15.6271 22.4507 15.8503 22.9538 15.6226L30.2419 12.3234L33.541 19.6115C33.7688 20.1146 34.3613 20.3378 34.8644 20.1101C35.3675 19.8823 35.5908 19.2898 35.363 18.7867L31.6515 10.5876ZM20 39.5069L20.9358 39.8595L31.6763 11.3526L30.7405 11L29.8047 10.6474L19.0642 39.1543L20 39.5069Z" fill="white"/>
<path d="M10.9105 23.2173L11.9247 20.3939L25.0046 19.4779L23.8376 22.7263L14.9904 23.0528L15.1552 22.9218L15.0111 23.3229L14.9673 23.117L21.5844 28.9987L20.4175 32.2471L10.9105 23.2173ZM37.5559 32.7891L24.476 33.7051L25.643 30.4566L34.4902 30.1302L34.3254 30.2611L34.4695 29.8601L34.5133 30.066L27.8962 24.1843L29.0631 20.9358L38.5701 29.9657L37.5559 32.7891Z" fill="white"/>
<path d="M5.56818 25.9091V25.3636C6.55114 25.358 7.21591 25.1818 7.5625 24.8352C7.91477 24.483 8.09091 23.8182 8.09091 22.8409V18.375C8.09091 17.7557 8.15341 17.2187 8.27841 16.7642C8.40341 16.304 8.59375 15.9233 8.84943 15.6222C9.10511 15.321 9.42614 15.0966 9.8125 14.9489C10.2045 14.8011 10.6648 14.7273 11.1932 14.7273V15.2727C10.6023 15.267 10.1165 15.3722 9.7358 15.5881C9.3608 15.804 9.08239 16.142 8.90057 16.6023C8.72443 17.0568 8.63636 17.6477 8.63636 18.375V22.8409C8.63636 23.4034 8.58239 23.8807 8.47443 24.2727C8.36648 24.6591 8.19318 24.9744 7.95455 25.2188C7.71591 25.4574 7.40057 25.6335 7.00852 25.7472C6.61648 25.8551 6.13636 25.9091 5.56818 25.9091ZM11.1932 36.5455C10.6648 36.5455 10.2045 36.4716 9.8125 36.3239C9.42614 36.1761 9.10511 35.9517 8.84943 35.6506C8.59375 35.3494 8.40341 34.9688 8.27841 34.5085C8.15341 34.054 8.09091 33.517 8.09091 32.8977V28.4318C8.09091 27.4545 7.91477 26.7926 7.5625 26.446C7.21591 26.0937 6.55114 25.9148 5.56818 25.9091V25.3636C6.13636 25.3693 6.61648 25.429 7.00852 25.5426C7.40057 25.6506 7.71591 25.8239 7.95455 26.0625C8.19318 26.3011 8.36648 26.6165 8.47443 27.0085C8.58239 27.3949 8.63636 27.8693 8.63636 28.4318V32.8977C8.63636 33.625 8.72443 34.2159 8.90057 34.6705C9.08239 35.1307 9.3608 35.4659 9.7358 35.6761C10.1165 35.892 10.6023 36 11.1932 36V36.5455ZM5.56818 25.9091V25.3636H7.40909V25.9091H5.56818ZM44.5703 25.3636V25.9091C43.5874 25.9148 42.9197 26.0937 42.5675 26.446C42.2209 26.7926 42.0476 27.4545 42.0476 28.4318V32.8977C42.0476 33.517 41.9851 34.054 41.8601 34.5085C41.7351 34.9688 41.5447 35.3494 41.2891 35.6506C41.0334 35.9517 40.7095 36.1761 40.3175 36.3239C39.9311 36.4716 39.4737 36.5455 38.9453 36.5455V36C39.5419 36 40.0277 35.892 40.4027 35.6761C40.7777 35.4659 41.0533 35.1307 41.2294 34.6705C41.4112 34.2159 41.5021 33.625 41.5021 32.8977V28.4318C41.5021 27.8693 41.5561 27.3949 41.6641 27.0085C41.772 26.6165 41.9453 26.3011 42.1839 26.0625C42.4226 25.8182 42.7379 25.642 43.13 25.5341C43.522 25.4205 44.0021 25.3636 44.5703 25.3636ZM38.9453 14.7273C39.4737 14.7273 39.9311 14.8011 40.3175 14.9489C40.7095 15.0966 41.0334 15.321 41.2891 15.6222C41.5447 15.9233 41.7351 16.304 41.8601 16.7642C41.9851 17.2187 42.0476 17.7557 42.0476 18.375V22.8409C42.0476 23.8182 42.2209 24.483 42.5675 24.8352C42.9197 25.1818 43.5874 25.358 44.5703 25.3636V25.9091C44.0021 25.9034 43.522 25.8466 43.13 25.7386C42.7379 25.625 42.4226 25.4489 42.1839 25.2102C41.9453 24.9716 41.772 24.6591 41.6641 24.2727C41.5561 23.8807 41.5021 23.4034 41.5021 22.8409V18.375C41.5021 17.6477 41.4112 17.0568 41.2294 16.6023C41.0533 16.142 40.7777 15.804 40.4027 15.5881C40.0277 15.3722 39.5419 15.267 38.9453 15.2727V14.7273ZM44.5703 25.3636V25.9091H42.7294V25.3636H44.5703Z" fill="white"/>
</svg>
